<?xml version="1.0" encoding="UTF-8"?>
<svg xmlns="http://www.w3.org/2000/svg" xmlns:xlink="http://www.w3.org/1999/xlink" width="150px" height="50px" viewBox="0 0 150 50" version="1.1">
<g id="surface1">
<path style=" stroke:none;fill-rule:nonzero;fill:rgb(0%,0%,0%);fill-opacity:1;" d="M 70.027344 11.042969 C 67.273438 11.640625 65.773438 12.679688 66.253906 13.578125 C 66.734375 14.515625 69.070312 15.515625 71.226562 15.675781 C 72.183594 15.734375 73.324219 15.933594 73.742188 16.09375 C 74.101562 16.253906 74.699219 16.375 75.058594 16.375 C 75.480469 16.375 75.480469 16.292969 75 16.132812 C 74.28125 15.894531 74.042969 14.777344 74.640625 14.078125 C 74.878906 13.738281 75.359375 13.679688 77.933594 13.757812 C 80.152344 13.796875 81.230469 13.738281 82.128906 13.457031 C 83.507812 13.058594 83.625 12.578125 82.367188 12.578125 C 81.890625 12.578125 81.46875 12.421875 81.46875 12.21875 C 81.410156 11.742188 80.273438 11.300781 78.054688 10.921875 C 75.417969 10.464844 72.425781 10.503906 70.027344 11.042969 Z M 70.027344 11.042969 "/>
<path style=" stroke:none;fill-rule:nonzero;fill:rgb(0%,0%,0%);fill-opacity:1;" d="M 66.074219 16.613281 C 63.796875 17.691406 63.796875 17.710938 61.640625 20.945312 C 60.683594 22.445312 59.722656 23.820312 59.542969 24 C 59.363281 24.242188 59.542969 24.359375 60.082031 24.359375 C 60.5625 24.359375 61.101562 24.640625 61.34375 24.980469 C 61.941406 25.957031 61.820312 26.15625 60.742188 26.019531 C 59.304688 25.839844 58.105469 26.476562 58.105469 27.417969 C 58.105469 27.875 57.867188 28.136719 57.507812 28.054688 C 57.148438 27.976562 56.910156 26.257812 56.910156 23.542969 L 56.910156 19.167969 L 46.1875 19.167969 C 35.644531 19.167969 35.34375 19.1875 33.726562 19.648438 L 32.046875 20.128906 L 31.867188 23.222656 C 31.570312 27.4375 32.585938 28.15625 38.699219 28.15625 C 41.214844 28.15625 41.273438 28.355469 38.996094 28.773438 C 35.222656 29.492188 31.328125 32.207031 33.847656 32.386719 C 34.503906 32.429688 34.207031 32.726562 32.347656 33.644531 C 29.953125 34.84375 29.953125 35.164062 32.289062 34.746094 C 33.488281 34.542969 33.546875 34.585938 33.546875 35.34375 C 33.546875 37.519531 40.074219 39.136719 46.605469 38.558594 C 48.882812 38.339844 53.316406 37.019531 53.316406 36.542969 C 53.316406 36.421875 54.933594 36.34375 56.910156 36.34375 C 59.84375 36.34375 60.621094 36.261719 61.222656 35.941406 C 61.941406 35.5625 62 35.5625 63.378906 36.003906 C 64.757812 36.421875 65.175781 36.441406 78.355469 36.441406 C 92.851562 36.441406 93.929688 36.382812 96.683594 35.363281 C 98.242188 34.785156 98.664062 34.824219 99.140625 35.683594 C 101.179688 39.335938 115.734375 39.738281 119.210938 36.222656 C 120.046875 35.382812 119.628906 34.125 118.25 33.425781 C 117.652344 33.128906 117.53125 32.949219 117.953125 32.949219 C 119.148438 32.949219 118.671875 32.609375 116.394531 31.867188 C 114.238281 31.171875 112.679688 30.910156 113.578125 31.390625 C 113.816406 31.53125 113.757812 31.550781 113.277344 31.46875 C 112.917969 31.390625 112.738281 31.25 112.917969 31.148438 C 113.097656 31.050781 111.902344 30.8125 110.222656 30.609375 C 107.46875 30.292969 107.226562 30.210938 107.226562 29.613281 C 107.226562 29.191406 106.328125 28.535156 104.472656 27.617188 C 101.117188 26 98.363281 24.78125 96.984375 24.359375 C 95.367188 23.863281 94.410156 23.121094 95.1875 22.984375 C 96.386719 22.722656 96.925781 21.644531 96.324219 20.6875 C 95.726562 19.75 95.425781 19.6875 93.03125 19.886719 C 91.472656 20.027344 89.078125 21.285156 89.675781 21.625 C 89.917969 21.765625 89.675781 21.765625 89.078125 21.605469 C 88.179688 21.347656 86.859375 21.425781 86.859375 21.726562 C 86.859375 21.804688 87.699219 21.984375 88.71875 22.105469 L 90.574219 22.34375 L 89.316406 22.785156 C 87.820312 23.324219 87.757812 23.542969 89.015625 23.703125 C 89.617188 23.78125 89.855469 23.960938 89.617188 24.222656 C 89.4375 24.460938 90.15625 25.300781 91.234375 26.136719 C 92.972656 27.554688 93.089844 27.816406 93.152344 30.09375 C 93.152344 32.207031 92.972656 32.585938 91.953125 33.046875 C 90.753906 33.585938 90.695312 33.585938 82.429688 33.625 C 74.222656 33.6875 74.101562 33.667969 72.722656 33.167969 C 70.027344 32.226562 70.085938 31.351562 72.902344 29.890625 C 73.980469 29.3125 74.582031 28.695312 74.761719 27.914062 L 75 26.796875 L 77.695312 26.71875 L 80.390625 26.65625 L 79.972656 27.257812 C 79.132812 28.695312 77.933594 31.328125 77.753906 32.148438 L 77.574219 33.046875 L 84.164062 33.046875 L 86.082031 30.152344 C 88.539062 26.378906 88.597656 24.761719 86.203125 24.761719 C 85.363281 24.761719 85.0625 25.4375 85.78125 25.597656 C 86.320312 25.699219 86.203125 25.757812 85.304688 25.757812 C 84.34375 25.757812 83.925781 25.597656 83.6875 25.179688 C 83.328125 24.582031 81.710938 24.359375 77.335938 24.359375 C 76.136719 24.359375 74.519531 24.300781 73.742188 24.222656 C 72.425781 24.101562 72.363281 24.042969 72.722656 23.042969 C 72.964844 22.34375 72.84375 21.964844 72.484375 21.964844 C 71.585938 21.964844 68.890625 20.964844 68.890625 20.667969 C 68.890625 20.328125 71.945312 20.148438 72.964844 20.40625 C 73.503906 20.566406 73.683594 20.328125 73.800781 19.289062 C 73.863281 18.570312 73.921875 17.773438 73.921875 17.53125 C 73.980469 17.234375 73.144531 16.871094 71.40625 16.433594 C 69.96875 16.074219 68.589844 15.773438 68.351562 15.773438 C 68.109375 15.773438 67.09375 16.152344 66.074219 16.613281 Z M 105.132812 28.273438 C 105.671875 28.554688 105.96875 28.933594 105.730469 29.113281 C 105.371094 29.414062 105.132812 29.371094 103.875 28.894531 C 103.09375 28.59375 102.4375 28.195312 102.4375 28.035156 C 102.4375 27.574219 103.992188 27.714844 105.132812 28.273438 Z M 58.824219 29.671875 C 59.722656 29.832031 60.503906 30.011719 60.503906 30.070312 C 60.503906 30.113281 59.902344 30.050781 59.183594 29.933594 C 58.40625 29.792969 54.992188 29.632812 51.515625 29.574219 C 46.546875 29.492188 45.707031 29.433594 47.625 29.332031 C 50.917969 29.132812 56.789062 29.3125 58.824219 29.671875 Z M 112.320312 33.265625 C 116.453125 33.925781 117.351562 35.742188 113.9375 36.78125 C 111.78125 37.460938 109.503906 37.621094 106.988281 37.261719 C 104.351562 36.882812 102.734375 36.082031 102.796875 35.105469 C 102.914062 34.265625 103.695312 33.847656 106.328125 33.308594 C 108.546875 32.867188 109.746094 32.847656 112.320312 33.265625 Z M 48.34375 33.585938 C 49.78125 33.984375 49.121094 34.144531 46.1875 34.144531 C 42.171875 34.144531 40.195312 34.664062 41.035156 35.464844 C 41.574219 35.984375 42.050781 36.0625 45.226562 36.222656 C 47.203125 36.320312 48.941406 36.421875 49.0625 36.460938 C 49.660156 36.640625 47.5625 37.160156 45.46875 37.339844 C 38.996094 37.917969 34.265625 35.285156 38.996094 33.707031 C 40.734375 33.128906 40.972656 33.105469 44.148438 33.226562 C 46.007812 33.308594 47.921875 33.464844 48.34375 33.585938 Z M 88.359375 34.066406 C 88.898438 34.246094 89.199219 34.484375 89.078125 34.625 C 88.777344 34.925781 76.675781 35.042969 76.675781 34.746094 C 76.675781 34.625 78.414062 34.542969 80.929688 34.542969 C 84.644531 34.542969 85.183594 34.503906 85.484375 34.144531 C 85.84375 33.667969 87.039062 33.625 88.359375 34.066406 Z M 88.359375 34.066406 "/>
<path style=" stroke:none;fill-rule:nonzero;fill:rgb(0%,0%,0%);fill-opacity:1;" d="M 108.425781 35.242188 C 108.425781 35.441406 108.847656 35.542969 109.503906 35.503906 C 110.761719 35.421875 110.644531 35.0625 109.386719 34.984375 C 108.785156 34.945312 108.425781 35.042969 108.425781 35.242188 Z M 108.425781 35.242188 "/>
<path style=" stroke:none;fill-rule:nonzero;fill:rgb(0%,0%,0%);fill-opacity:1;" d="M 85.304688 22.785156 C 84.703125 23.121094 86.082031 23.503906 86.921875 23.222656 C 87.640625 22.984375 87.160156 22.5625 86.261719 22.5625 C 85.960938 22.5625 85.542969 22.664062 85.304688 22.785156 Z M 85.304688 22.785156 "/>
</g>
</svg>
